<?xml version="1.0" standalone="no"?>
<!DOCTYPE svg PUBLIC "-//W3C//DTD SVG 20010904//EN"
 "http://www.w3.org/TR/2001/REC-SVG-20010904/DTD/svg10.dtd">
<svg version="1.0" xmlns="http://www.w3.org/2000/svg"
 width="1536.000000pt" height="1536.000000pt" viewBox="0 0 1536.000000 1536.000000"
 preserveAspectRatio="xMidYMid meet">
<metadata>
Created by potrace 1.14, written by Peter Selinger 2001-2017
</metadata>
<g transform="translate(0.000000,1536.000000) scale(0.100000,-0.100000)"
fill="#000000" stroke="none">
<path d="M5620 11832 c0 -7 -20 -45 -44 -85 -66 -110 -205 -348 -273 -467 -20
-36 -41 -66 -45 -68 -4 -2 -8 -7 -8 -12 0 -6 -79 -147 -159 -282 -131 -222
-243 -413 -271 -463 -19 -34 -40 -69 -46 -76 -6 -8 -28 -45 -49 -84 -21 -38
-44 -77 -51 -85 -7 -8 -14 -22 -16 -30 -2 -8 -5 -17 -8 -20 -6 -6 -69 -110
-100 -165 -13 -22 -31 -53 -41 -70 -11 -16 -22 -37 -26 -45 -3 -8 -21 -38 -38
-65 -30 -47 -47 -76 -112 -192 -14 -27 -30 -49 -35 -51 -4 -2 -8 -8 -8 -14 0
-5 -43 -82 -95 -170 -52 -88 -95 -164 -95 -168 0 -5 -6 -15 -13 -22 -13 -14
-142 -232 -167 -283 -8 -16 -17 -32 -21 -35 -3 -3 -17 -25 -31 -50 -14 -25
-72 -124 -128 -220 -124 -211 -137 -234 -163 -282 -12 -21 -24 -38 -29 -38 -4
0 -8 -6 -8 -12 0 -7 -25 -53 -54 -103 -30 -49 -67 -112 -82 -140 -14 -27 -30
-52 -33 -55 -4 -3 -18 -25 -31 -50 -32 -62 -48 -90 -70 -125 -11 -16 -24 -39
-30 -50 -6 -11 -16 -29 -23 -40 -7 -11 -43 -74 -82 -140 -38 -66 -73 -121 -77
-123 -4 -2 -8 -8 -8 -13 0 -8 -54 -104 -101 -179 -10 -16 -91 -156 -119 -205
-9 -16 -40 -69 -69 -117 -28 -48 -51 -91 -51 -97 0 -6 -4 -11 -9 -11 -5 0 -16
-18 -25 -40 -9 -22 -20 -40 -26 -40 -5 0 -10 -6 -10 -13 0 -7 -11 -29 -25 -50
-14 -20 -22 -37 -18 -37 4 0 3 -4 -3 -8 -10 -6 -63 -94 -103 -170 -8 -15 -17
-29 -21 -32 -4 -3 -10 -15 -14 -27 -4 -13 -12 -23 -17 -23 -5 0 -9 -4 -9 -9 0
-4 -21 -45 -47 -90 -27 -45 -62 -107 -78 -137 -17 -29 -36 -59 -43 -66 -7 -7
-12 -17 -12 -24 0 -6 -7 -17 -15 -24 -9 -7 -14 -15 -11 -17 2 -2 -11 -28 -30
-56 -19 -28 -34 -57 -34 -64 0 -7 -4 -13 -9 -13 -5 0 -11 -8 -15 -17 -3 -10
-17 -36 -31 -58 -14 -22 -31 -51 -38 -65 -6 -14 -17 -31 -24 -38 -7 -7 -13
-17 -13 -22 0 -5 -13 -29 -30 -53 -16 -25 -30 -48 -30 -51 0 -3 -15 -29 -33
-58 -19 -29 -37 -60 -40 -68 -4 -8 -17 -31 -28 -50 -12 -19 -43 -73 -71 -120
-27 -47 -53 -92 -58 -100 -86 -144 -104 -176 -102 -182 1 -5 -2 -8 -8 -8 -5 0
-10 -4 -10 -8 0 -9 -92 -165 -109 -186 -5 -6 -11 -18 -13 -26 -2 -8 -6 -17 -9
-20 -3 -3 -22 -34 -43 -70 -20 -36 -41 -72 -46 -80 -19 -30 -156 -266 -163
-280 -4 -8 -16 -28 -27 -45 -11 -16 -23 -37 -27 -45 -3 -8 -14 -26 -23 -40
-10 -14 -28 -45 -42 -70 -14 -25 -35 -61 -46 -80 -24 -40 -65 -112 -107 -185
-15 -27 -32 -52 -37 -53 -4 -2 -8 -12 -8 -23 0 -10 -3 -19 -7 -19 -5 0 -24
-29 -43 -65 -19 -36 -39 -65 -43 -65 -5 0 -6 -4 -2 -9 3 -5 1 -12 -5 -16 -10
-6 -50 -78 -50 -90 0 -3 3123 -5 6940 -5 3817 0 6940 4 6940 8 0 4 -12 28 -28
53 -15 24 -34 58 -42 74 -8 17 -17 32 -20 35 -8 8 -70 111 -70 116 0 2 -12 23
-27 47 -15 23 -35 56 -44 72 -26 48 -60 106 -127 220 -35 58 -71 120 -81 138
-11 18 -42 73 -71 122 -29 50 -61 104 -70 121 -37 64 -45 78 -53 88 -10 14
-325 554 -352 604 -11 20 -22 39 -25 42 -3 3 -11 16 -19 30 -8 14 -37 63 -64
110 -27 47 -57 99 -67 116 -10 17 -35 60 -57 95 -21 35 -45 78 -53 94 -8 17
-18 32 -21 35 -3 3 -22 34 -43 70 -20 36 -48 83 -61 105 -14 22 -30 51 -36 65
-6 14 -16 32 -23 40 -7 8 -27 40 -43 70 -16 30 -44 78 -61 106 -18 28 -32 56
-32 63 0 6 -4 11 -8 11 -4 0 -20 24 -35 53 -16 28 -55 96 -87 150 -33 55 -60
103 -60 108 0 5 -5 9 -11 9 -5 0 -8 4 -4 9 3 5 1 12 -4 15 -5 4 -26 37 -47 74
-20 37 -40 69 -44 72 -3 3 -12 20 -19 38 -8 17 -17 32 -22 32 -5 0 -9 5 -9 10
0 6 -18 40 -40 76 -22 36 -40 68 -40 71 0 2 -16 28 -35 58 -19 30 -31 55 -27
55 4 0 2 4 -4 8 -10 7 -74 108 -74 117 0 3 -12 24 -27 48 -15 23 -33 51 -39
62 -6 11 -21 36 -32 55 -12 19 -25 42 -29 50 -3 8 -15 27 -25 43 -11 15 -16
27 -11 27 4 0 3 4 -2 8 -6 4 -33 45 -60 92 -28 46 -55 94 -62 105 -7 11 -17
29 -23 40 -6 11 -16 29 -23 40 -7 11 -25 43 -42 70 -16 28 -34 53 -40 57 -5 4
-6 8 -2 8 5 0 0 12 -11 28 -10 15 -22 34 -26 42 -4 8 -12 24 -19 35 -12 18
-99 167 -122 207 -20 35 -160 273 -172 293 -7 11 -15 27 -19 35 -4 8 -15 26
-24 40 -10 14 -29 46 -42 71 -43 77 -53 94 -58 99 -5 5 -9 12 -52 89 -11 20
-65 112 -119 204 -55 92 -99 172 -99 177 0 6 -4 10 -10 10 -5 0 -10 6 -10 14
0 7 -7 19 -15 26 -8 7 -15 21 -15 31 0 11 -4 19 -10 19 -5 0 -17 15 -25 33
-25 53 -59 112 -67 115 -5 2 -8 8 -8 14 0 5 -13 28 -28 51 -15 23 -33 53 -40
67 -7 14 -23 43 -37 65 -14 22 -28 47 -32 55 -4 8 -9 17 -13 20 -3 3 -14 22
-23 43 -10 20 -23 37 -29 37 -6 0 -9 3 -5 6 3 3 -12 35 -34 70 -21 35 -39 68
-39 72 0 5 -8 17 -17 28 -10 10 -26 35 -35 54 -10 19 -28 53 -41 75 -60 100
-131 222 -141 242 -6 13 -14 23 -18 23 -5 0 -8 4 -8 10 0 5 -27 55 -60 111
-33 55 -60 105 -60 110 0 5 -3 9 -7 9 -5 0 -13 10 -19 23 -20 43 -59 111 -71
125 -7 7 -13 20 -13 28 0 8 -4 14 -10 14 -5 0 -12 11 -16 25 -3 14 -10 25 -14
25 -4 0 -10 8 -13 18 -6 17 -32 63 -88 155 -16 26 -29 51 -29 56 0 5 -3 11 -8
13 -9 4 -102 164 -102 177 0 5 -4 11 -8 13 -12 5 -73 108 -64 108 4 0 2 4 -4
8 -6 4 -24 30 -40 58 -61 109 -138 239 -143 244 -3 3 -14 22 -23 43 -21 44
-34 47 -51 10 -6 -16 -14 -30 -18 -33 -3 -3 -18 -27 -34 -55 -68 -124 -180
-311 -190 -317 -5 -4 -7 -8 -3 -8 4 0 -7 -24 -26 -52 -18 -29 -44 -73 -58 -98
-14 -25 -56 -97 -93 -160 -37 -63 -76 -130 -86 -147 -98 -171 -345 -589 -349
-593 -4 -3 -13 -20 -21 -37 -8 -18 -18 -33 -22 -33 -5 0 -6 -4 -3 -9 3 -5 -1
-14 -9 -21 -8 -7 -15 -19 -15 -26 0 -8 -4 -14 -9 -14 -5 0 -11 -8 -15 -17 -3
-10 -15 -34 -27 -53 -11 -19 -48 -82 -81 -140 -34 -58 -80 -136 -104 -175 -23
-38 -51 -87 -63 -107 -49 -88 -216 -376 -231 -398 -5 -8 -19 -33 -31 -55 -12
-22 -25 -42 -29 -45 -3 -3 -13 -20 -21 -37 -8 -18 -17 -33 -21 -33 -5 0 -8 -4
-8 -9 0 -5 -36 -71 -80 -145 -44 -75 -84 -144 -87 -153 -4 -10 -11 -22 -15
-28 -16 -19 -60 -89 -67 -105 -3 -8 -32 -59 -63 -112 -32 -53 -58 -101 -58
-107 0 -5 -4 -11 -8 -13 -8 -3 -58 -86 -92 -151 l-14 -29 -23 29 c-13 15 -26
37 -29 48 -4 11 -10 22 -13 25 -6 4 -223 372 -289 490 -30 53 -62 108 -80 135
-6 11 -15 27 -19 35 -4 8 -9 17 -12 20 -5 4 -23 35 -55 95 -6 11 -13 22 -16
25 -3 3 -16 25 -29 50 -13 25 -30 52 -37 61 -8 8 -14 23 -14 32 0 9 -4 17 -9
17 -5 0 -18 17 -28 38 -11 20 -49 88 -86 150 -37 62 -67 117 -67 123 0 5 -3 9
-8 9 -4 0 -18 21 -31 48 -14 26 -30 54 -36 62 -7 8 -25 40 -41 70 -16 30 -32
57 -35 60 -7 7 -89 150 -89 157 0 2 -13 24 -30 48 -16 24 -30 48 -30 54 0 6
-4 11 -9 11 -5 0 -11 8 -15 18 -8 25 -65 124 -81 142 -8 9 -13 19 -10 22 3 3
-1 11 -10 18 -8 7 -15 16 -15 20 0 8 -94 169 -110 187 -6 7 -15 23 -20 35 -6
13 -24 46 -41 73 -17 28 -35 62 -42 78 -6 15 -15 27 -19 27 -4 0 -8 7 -8 15 0
8 -4 15 -10 15 -5 0 -10 4 -10 9 0 6 -30 61 -67 123 -36 62 -80 138 -98 168
-18 30 -56 96 -85 145 -71 121 -91 155 -107 185 -8 14 -23 39 -33 55 -11 17
-24 39 -30 50 -5 11 -21 38 -35 60 -14 22 -30 51 -37 65 -7 14 -21 39 -32 55
-12 17 -21 32 -21 35 0 12 -44 64 -45 52z"/>
</g>
</svg>
